<svg width="250" height="250" viewBox="0 0 250 250" fill="none" xmlns="http://www.w3.org/2000/svg">
<rect width="250" height="250" fill="black"/>
<line x1="126.572" y1="19" x2="126.572" y2="72.0359" stroke="#AAF5B9" stroke-width="3"/>
<line x1="126.572" y1="178.107" x2="126.572" y2="231.143" stroke="#AAF5B9" stroke-width="3"/>
<line x1="126.572" y1="19" x2="126.572" y2="72.0359" stroke="#AAF5B9" stroke-width="3"/>
<line x1="126.572" y1="178.107" x2="126.572" y2="231.143" stroke="#AAF5B9" stroke-width="3"/>
<line y1="-1.5" x2="53.0359" y2="-1.5" transform="matrix(0.156436 0.987688 -0.987689 0.156433 108.478 20.2988)" stroke="#AAF5B9" stroke-width="3"/>
<line y1="-1.5" x2="53.0359" y2="-1.5" transform="matrix(0.156436 0.987688 -0.987689 0.156433 133.369 177.455)" stroke="#AAF5B9" stroke-width="3"/>
<line y1="-1.5" x2="53.0359" y2="-1.5" transform="matrix(0.156436 0.987688 -0.987689 0.156433 108.478 20.2988)" stroke="#AAF5B9" stroke-width="3"/>
<line y1="-1.5" x2="53.0359" y2="-1.5" transform="matrix(0.156436 0.987688 -0.987689 0.156433 133.369 177.455)" stroke="#AAF5B9" stroke-width="3"/>
<line y1="-1.5" x2="53.0359" y2="-1.5" transform="matrix(-0.156436 0.987688 -0.987689 -0.156433 141.667 20.2988)" stroke="#AAF5B9" stroke-width="3"/>
<line y1="-1.5" x2="53.0359" y2="-1.5" transform="matrix(-0.156436 0.987688 -0.987689 -0.156433 116.775 177.455)" stroke="#AAF5B9" stroke-width="3"/>
<line y1="-1.5" x2="53.036" y2="-1.5" transform="matrix(0.30902 0.951056 -0.951057 0.309014 92.2949 24.1855)" stroke="#AAF5B9" stroke-width="3"/>
<line y1="-1.5" x2="53.036" y2="-1.5" transform="matrix(0.30902 0.951056 -0.951057 0.309014 141.46 175.508)" stroke="#AAF5B9" stroke-width="3"/>
<line y1="-1.5" x2="53.036" y2="-1.5" transform="matrix(0.30902 0.951056 -0.951057 0.309014 92.2949 24.1855)" stroke="#AAF5B9" stroke-width="3"/>
<line y1="-1.5" x2="53.036" y2="-1.5" transform="matrix(0.30902 0.951056 -0.951057 0.309014 141.46 175.508)" stroke="#AAF5B9" stroke-width="3"/>
<line y1="-1.5" x2="53.036" y2="-1.5" transform="matrix(0.453994 0.891005 -0.891008 0.453987 76.915 30.5605)" stroke="#AAF5B9" stroke-width="3"/>
<line y1="-1.5" x2="53.036" y2="-1.5" transform="matrix(0.453994 0.891005 -0.891008 0.453987 149.147 172.334)" stroke="#AAF5B9" stroke-width="3"/>
<line y1="-1.5" x2="53.036" y2="-1.5" transform="matrix(0.453994 0.891005 -0.891008 0.453987 76.915 30.5605)" stroke="#AAF5B9" stroke-width="3"/>
<line y1="-1.5" x2="53.036" y2="-1.5" transform="matrix(0.453994 0.891005 -0.891008 0.453987 149.147 172.334)" stroke="#AAF5B9" stroke-width="3"/>
<line y1="-1.5" x2="53.0361" y2="-1.5" transform="matrix(0.587789 0.809014 -0.80902 0.587781 62.7246 39.2598)" stroke="#AAF5B9" stroke-width="3"/>
<line y1="-1.5" x2="53.0361" y2="-1.5" transform="matrix(0.587789 0.809014 -0.80902 0.587781 156.243 167.967)" stroke="#AAF5B9" stroke-width="3"/>
<line y1="-1.5" x2="53.0361" y2="-1.5" transform="matrix(0.587789 0.809014 -0.80902 0.587781 62.7246 39.2598)" stroke="#AAF5B9" stroke-width="3"/>
<line y1="-1.5" x2="53.0361" y2="-1.5" transform="matrix(0.587789 0.809014 -0.80902 0.587781 156.243 167.967)" stroke="#AAF5B9" stroke-width="3"/>
<line y1="-1.5" x2="53.0362" y2="-1.5" transform="matrix(0.70711 0.707103 -0.70711 0.707103 50.0654 50.0703)" stroke="#AAF5B9" stroke-width="3"/>
<line y1="-1.5" x2="53.0362" y2="-1.5" transform="matrix(0.70711 0.707103 -0.70711 0.707103 162.571 162.568)" stroke="#AAF5B9" stroke-width="3"/>
<line y1="-1.5" x2="53.0362" y2="-1.5" transform="matrix(0.70711 0.707103 -0.70711 0.707103 50.0654 50.0703)" stroke="#AAF5B9" stroke-width="3"/>
<line y1="-1.5" x2="53.0362" y2="-1.5" transform="matrix(0.70711 0.707103 -0.70711 0.707103 162.571 162.568)" stroke="#AAF5B9" stroke-width="3"/>
<line y1="-1.5" x2="53.0363" y2="-1.5" transform="matrix(0.80902 0.587781 -0.587789 0.809014 39.2588 62.7168)" stroke="#AAF5B9" stroke-width="3"/>
<line y1="-1.5" x2="53.0363" y2="-1.5" transform="matrix(0.80902 0.587781 -0.587789 0.809014 167.978 156.244)" stroke="#AAF5B9" stroke-width="3"/>
<line y1="-1.5" x2="53.0363" y2="-1.5" transform="matrix(0.80902 0.587781 -0.587789 0.809014 39.2588 62.7168)" stroke="#AAF5B9" stroke-width="3"/>
<line y1="-1.5" x2="53.0363" y2="-1.5" transform="matrix(0.80902 0.587781 -0.587789 0.809014 167.978 156.244)" stroke="#AAF5B9" stroke-width="3"/>
<line y1="-1.5" x2="53.0364" y2="-1.5" transform="matrix(0.891008 0.453987 -0.453994 0.891005 30.5605 76.918)" stroke="#AAF5B9" stroke-width="3"/>
<line y1="-1.5" x2="53.0364" y2="-1.5" transform="matrix(0.891008 0.453987 -0.453994 0.891005 172.328 149.146)" stroke="#AAF5B9" stroke-width="3"/>
<line y1="-1.5" x2="53.0364" y2="-1.5" transform="matrix(0.891008 0.453987 -0.453994 0.891005 30.5605 76.918)" stroke="#AAF5B9" stroke-width="3"/>
<line y1="-1.5" x2="53.0364" y2="-1.5" transform="matrix(0.891008 0.453987 -0.453994 0.891005 172.328 149.146)" stroke="#AAF5B9" stroke-width="3"/>
<line y1="-1.5" x2="53.0364" y2="-1.5" transform="matrix(0.951057 0.309014 -0.30902 0.951056 24.1895 92.2969)" stroke="#AAF5B9" stroke-width="3"/>
<line y1="-1.5" x2="53.0364" y2="-1.5" transform="matrix(0.951057 0.309014 -0.30902 0.951056 175.509 141.447)" stroke="#AAF5B9" stroke-width="3"/>
<line y1="-1.5" x2="53.0364" y2="-1.5" transform="matrix(0.951057 0.309014 -0.30902 0.951056 24.1895 92.2969)" stroke="#AAF5B9" stroke-width="3"/>
<line y1="-1.5" x2="53.0364" y2="-1.5" transform="matrix(0.951057 0.309014 -0.30902 0.951056 175.509 141.447)" stroke="#AAF5B9" stroke-width="3"/>
<line y1="-1.5" x2="53.0364" y2="-1.5" transform="matrix(0.987689 0.156433 -0.156436 0.987688 20.3057 108.471)" stroke="#AAF5B9" stroke-width="3"/>
<line y1="-1.5" x2="53.0364" y2="-1.5" transform="matrix(0.987689 0.156433 -0.156436 0.987688 177.455 133.367)" stroke="#AAF5B9" stroke-width="3"/>
<line y1="-1.5" x2="53.0364" y2="-1.5" transform="matrix(0.987689 0.156433 -0.156436 0.987688 20.3057 108.471)" stroke="#AAF5B9" stroke-width="3"/>
<line y1="-1.5" x2="53.0364" y2="-1.5" transform="matrix(0.987689 0.156433 -0.156436 0.987688 177.455 133.367)" stroke="#AAF5B9" stroke-width="3"/>
<line x1="19" y1="123.572" x2="72.0365" y2="123.572" stroke="#AAF5B9" stroke-width="3"/>
<line x1="178.108" y1="123.572" x2="231.145" y2="123.572" stroke="#AAF5B9" stroke-width="3"/>
<line x1="19" y1="123.572" x2="72.0365" y2="123.572" stroke="#AAF5B9" stroke-width="3"/>
<line x1="178.108" y1="123.572" x2="231.145" y2="123.572" stroke="#AAF5B9" stroke-width="3"/>
<line y1="-1.5" x2="53.0364" y2="-1.5" transform="matrix(0.987689 -0.156433 0.156436 0.987688 20.3057 141.67)" stroke="#AAF5B9" stroke-width="3"/>
<line y1="-1.5" x2="53.0364" y2="-1.5" transform="matrix(0.987689 -0.156433 0.156436 0.987688 177.455 116.779)" stroke="#AAF5B9" stroke-width="3"/>
<line y1="-1.5" x2="53.0364" y2="-1.5" transform="matrix(0.951057 -0.309014 0.30902 0.951056 24.1895 157.846)" stroke="#AAF5B9" stroke-width="3"/>
<line y1="-1.5" x2="53.0364" y2="-1.5" transform="matrix(0.951057 -0.309014 0.30902 0.951056 175.509 108.691)" stroke="#AAF5B9" stroke-width="3"/>
<line y1="-1.5" x2="53.0364" y2="-1.5" transform="matrix(0.891008 -0.453987 0.453994 0.891005 30.5605 173.227)" stroke="#AAF5B9" stroke-width="3"/>
<line y1="-1.5" x2="53.0364" y2="-1.5" transform="matrix(0.891008 -0.453987 0.453994 0.891005 172.328 100.998)" stroke="#AAF5B9" stroke-width="3"/>
<line y1="-1.5" x2="53.0363" y2="-1.5" transform="matrix(0.80902 -0.587781 0.587789 0.809014 39.2588 187.426)" stroke="#AAF5B9" stroke-width="3"/>
<line y1="-1.5" x2="53.0363" y2="-1.5" transform="matrix(0.80902 -0.587781 0.587789 0.809014 167.978 93.9023)" stroke="#AAF5B9" stroke-width="3"/>
<line y1="-1.5" x2="53.0362" y2="-1.5" transform="matrix(0.70711 -0.707103 0.70711 0.707103 50.0654 200.074)" stroke="#AAF5B9" stroke-width="3"/>
<line y1="-1.5" x2="53.0362" y2="-1.5" transform="matrix(0.70711 -0.707103 0.70711 0.707103 162.571 87.5742)" stroke="#AAF5B9" stroke-width="3"/>
<line y1="-1.5" x2="53.0361" y2="-1.5" transform="matrix(0.587789 -0.809014 0.80902 0.587781 62.7246 210.883)" stroke="#AAF5B9" stroke-width="3"/>
<line y1="-1.5" x2="53.0361" y2="-1.5" transform="matrix(0.587789 -0.809014 0.80902 0.587781 156.243 82.1738)" stroke="#AAF5B9" stroke-width="3"/>
<line y1="-1.5" x2="53.036" y2="-1.5" transform="matrix(0.453994 -0.891005 0.891008 0.453987 76.915 219.584)" stroke="#AAF5B9" stroke-width="3"/>
<line y1="-1.5" x2="53.036" y2="-1.5" transform="matrix(0.453994 -0.891005 0.891008 0.453987 149.147 77.8105)" stroke="#AAF5B9" stroke-width="3"/>
<line y1="-1.5" x2="53.036" y2="-1.5" transform="matrix(0.30902 -0.951056 0.951057 0.309014 92.2881 225.959)" stroke="#AAF5B9" stroke-width="3"/>
<line y1="-1.5" x2="53.036" y2="-1.5" transform="matrix(0.325571 -0.945518 0.94552 0.325565 142.329 74.9277)" stroke="#AAF5B9" stroke-width="3"/>
</svg>
